<svg width="25" height="25" viewBox="0 0 25 25" fill="none" xmlns="http://www.w3.org/2000/svg">
<path d="M19.3359 16.7695C19.4407 18.0682 19.5806 18.775 19.9707 19.165C20.4099 19.6037 21.2485 19.7234 22.8809 19.834C22.9628 19.8395 23.0396 19.8756 23.0957 19.9355C23.1518 19.9956 23.1836 20.075 23.1836 20.1572C23.1835 20.2393 23.1517 20.318 23.0957 20.3779C23.0396 20.438 22.9628 20.475 22.8809 20.4805C21.2481 20.5937 20.4101 20.714 19.9717 21.1533C19.5821 21.5441 19.4451 22.251 19.3418 23.5498V24.0391C19.3418 24.2386 19.18 24.4004 18.9805 24.4004C18.7809 24.4004 18.6191 24.2386 18.6191 24.0391V23.5498C18.5144 22.2509 18.3747 21.5443 17.9844 21.1543C17.5714 20.7421 16.8049 20.6118 15.3584 20.5059L3.62967 20.5153C3.43999 20.5155 3.28613 20.3618 3.28613 20.1721C3.28613 19.9826 3.43965 19.829 3.62912 19.8288L15.3594 19.8193C16.8055 19.7109 17.5712 19.5791 17.9834 19.166C18.3731 18.7753 18.511 18.0683 18.6143 16.7695L18.6097 12.0042C18.6095 11.8045 18.7713 11.6426 18.971 11.6426C19.1704 11.6426 19.3322 11.8042 19.3323 12.0036L19.3359 16.7695ZM11.5547 0.0461704C11.7187 0.140987 11.775 0.350741 11.6804 0.514928L5.82422 10.6826C5.19563 11.991 4.92669 12.7205 5.07812 13.2842C5.22127 13.8169 5.76448 14.2894 6.83691 15.0283L10.9652 17.4092C11.1381 17.509 11.1974 17.73 11.0976 17.9029C10.9978 18.0757 10.7769 18.135 10.6041 18.0353L6.47656 15.6543C5.29952 15.0964 4.6185 14.8623 4.08594 15.0068C3.48673 15.168 2.96417 15.8349 2.05176 17.1943C2.00598 17.2624 1.93535 17.3106 1.85547 17.3291C1.77573 17.3475 1.692 17.3348 1.62109 17.2939C1.55015 17.253 1.49766 17.1867 1.47363 17.1084C1.44961 17.03 1.4553 16.9448 1.49121 16.8711C2.20901 15.4008 2.52441 14.6144 2.36328 14.0146C2.22027 13.4818 1.67732 13.0086 0.604492 12.2695L0.181754 12.0262C0.00859076 11.9265 -0.05093 11.7053 0.0488368 11.5322C0.148597 11.3591 0.36982 11.2997 0.542872 11.3995L0.96582 11.6436C2.14271 12.2015 2.82386 12.4356 3.35645 12.291C3.91995 12.1391 4.41538 11.5402 5.23047 10.3398L11.0852 0.172139C11.1799 0.00757369 11.3903 -0.0488581 11.5547 0.0461704ZM15.1006 0.0185547C15.1804 0.0369046 15.25 0.0854697 15.2959 0.15332C16.2101 1.51074 16.7345 2.17672 17.334 2.33691C17.8668 2.47984 18.5477 2.24454 19.7236 1.68457L20.1453 1.4404C20.3185 1.34016 20.5401 1.39948 20.64 1.57281C20.7396 1.74571 20.6804 1.96665 20.5076 2.06655L20.084 2.31152C19.0128 3.05212 18.4704 3.52534 18.3281 4.05859C18.1774 4.62252 18.4485 5.35161 19.0801 6.6582L24.954 16.8159C25.049 16.9801 24.9928 17.1903 24.8286 17.2852C24.6643 17.3801 24.4543 17.3239 24.3594 17.1598L18.4863 7.00293C17.6677 5.80378 17.172 5.20524 16.6084 5.05469C16.0756 4.9117 15.3945 5.14702 14.2188 5.70703L10.0964 8.09314C9.92348 8.19322 9.70218 8.13404 9.60231 7.96103C9.50262 7.78832 9.56165 7.5675 9.73422 7.46758L13.8574 5.08008C14.9291 4.33935 15.471 3.86536 15.6133 3.33203C15.7732 2.73226 15.4578 1.94569 14.7373 0.476562C14.7014 0.402904 14.6948 0.318601 14.7188 0.240234C14.7427 0.161861 14.7953 0.0957145 14.8662 0.0546875C14.9371 0.0136815 15.0208 0.000236136 15.1006 0.0185547Z" fill="white"/>
</svg>
