<svg width="1227" height="288" viewBox="0 0 1227 288" fill="none" xmlns="http://www.w3.org/2000/svg">
<path d="M389.879 247.738C382.212 247.738 375.312 246.204 369.178 243.137C363.044 239.879 358.156 235.087 354.515 228.762C351.064 222.436 349.339 214.482 349.339 204.898V129.281H321.738V109.442C331.513 109.251 338.605 108.292 343.014 106.567C347.614 104.651 350.777 101.2 352.502 96.2167C354.227 91.2331 355.281 83.2785 355.665 72.3529H381.254V107.717H419.781V129.281H381.254V203.748C381.254 211.031 382.883 216.398 386.141 219.849C389.4 223.107 394.096 224.736 400.23 224.736C403.488 224.736 406.555 224.449 409.43 223.874C412.497 223.107 415.468 222.053 418.343 220.711L421.506 236.812C417.097 240.262 412.209 242.946 406.842 244.863C401.667 246.779 396.013 247.738 389.879 247.738ZM506.357 247.738C492.748 247.738 480.48 244.767 469.555 238.825C458.821 232.883 450.387 224.449 444.253 213.523C438.12 202.406 435.053 189.468 435.053 174.709C435.053 161.675 437.832 149.695 443.391 138.769C449.141 127.844 457 119.314 466.967 113.18C476.934 107.047 487.956 103.98 500.031 103.98C510.957 103.98 520.541 106.28 528.783 110.88C537.217 115.289 543.734 121.902 548.334 130.719C553.126 139.344 555.522 149.695 555.522 161.77V173.271H455.466V154.87H524.183C523.799 144.903 521.212 137.236 516.42 131.869C511.82 126.31 505.59 123.531 497.731 123.531C491.598 123.531 486.135 125.256 481.343 128.706C476.743 131.965 473.101 136.948 470.417 143.657C467.925 150.174 466.679 158.033 466.679 167.233C466.679 179.309 468.692 189.468 472.717 197.71C476.934 205.76 482.685 211.798 489.968 215.823C497.252 219.849 505.59 221.861 514.982 221.861C521.883 221.861 528.495 220.903 534.821 218.986C541.146 216.878 547.376 213.715 553.509 209.498L557.247 225.599C550.347 232.883 542.584 238.441 533.958 242.275C525.333 245.917 516.132 247.738 506.357 247.738ZM589.168 143.657C589.168 138.482 588.881 134.073 588.306 130.431C587.922 126.789 587.251 123.531 586.293 120.656C585.335 117.78 583.897 115.097 581.98 112.605V110.88L620.795 106.855H621.657V127.268H623.095C627.504 119.793 633.062 114.043 639.771 110.018C646.48 105.992 653.955 103.98 662.197 103.98C670.823 103.98 678.49 105.992 685.198 110.018C691.907 114.043 697.178 120.081 701.012 128.131C704.845 135.99 706.762 145.574 706.762 156.883V210.648C706.762 216.59 706.858 221.382 707.05 225.024C707.433 228.666 708.008 231.828 708.775 234.512C709.733 237.195 711.075 239.879 712.8 242.562V244H668.523V242.562C670.248 240.071 671.493 237.387 672.26 234.512C673.219 231.637 673.794 228.378 673.985 224.736C674.369 221.095 674.56 216.398 674.56 210.648V157.745C674.56 151.228 673.602 145.765 671.685 141.357C669.768 136.948 667.085 133.594 663.635 131.294C660.185 128.994 656.159 127.844 651.559 127.844C646.575 127.844 641.784 129.377 637.183 132.444C632.583 135.319 628.845 139.536 625.97 145.094C623.095 150.653 621.657 157.266 621.657 164.933V210.648C621.657 215.057 621.753 219.178 621.945 223.011C622.137 226.653 622.52 229.816 623.095 232.499C624.053 235.758 625.491 239.112 627.408 242.562V244H583.13V242.562C584.855 240.071 586.101 237.387 586.868 234.512C587.826 231.637 588.401 228.378 588.593 224.736C588.976 221.095 589.168 216.398 589.168 210.648V143.657ZM796.398 247.738C785.664 247.738 775.792 244.863 766.783 239.112C757.775 233.362 750.587 225.216 745.22 214.673C740.044 203.939 737.457 191.48 737.457 177.296C737.457 163.496 740.236 151.036 745.795 139.919C751.545 128.61 759.308 119.793 769.083 113.468C778.859 107.142 789.976 103.98 802.435 103.98C809.719 103.98 816.524 105.513 822.849 108.58C829.366 111.455 834.541 115.48 838.375 120.656H840.1V75.8031C840.1 70.6278 839.812 66.2192 839.237 62.5774C838.854 58.9355 838.087 55.677 836.937 52.8018C835.979 49.9267 834.541 47.2432 832.625 44.7514V43.0263L871.439 39.001H872.302V206.91C872.302 212.661 872.398 217.357 872.589 220.999C872.973 224.641 873.643 227.899 874.602 230.774C875.56 233.649 876.902 236.333 878.627 238.825V240.262L840.962 244.575H840.1V224.161H838.375C833.775 232.02 827.833 237.962 820.549 241.987C813.457 245.821 805.406 247.738 796.398 247.738ZM806.461 224.161C812.594 224.161 818.249 222.532 823.424 219.274C828.599 215.823 832.625 211.223 835.5 205.473C838.567 199.531 840.1 192.918 840.1 185.634V166.946C840.1 158.512 838.758 151.132 836.075 144.807C833.583 138.29 829.941 133.306 825.149 129.856C820.357 126.214 814.607 124.393 807.898 124.393C800.423 124.393 793.906 126.502 788.347 130.719C782.788 134.936 778.38 140.973 775.121 148.832C772.054 156.499 770.521 165.316 770.521 175.284C770.521 185.059 771.959 193.685 774.834 201.16C777.901 208.444 782.118 214.098 787.485 218.124C793.043 222.149 799.369 224.161 806.461 224.161ZM914.028 143.657C914.028 138.482 913.74 134.073 913.165 130.431C912.782 126.789 912.111 123.531 911.152 120.656C910.194 117.78 908.756 115.097 906.84 112.605V110.88L945.367 106.855H946.517V142.507H947.954C951.405 130.048 956.388 120.56 962.905 114.043C969.422 107.334 977.664 103.98 987.632 103.98C991.465 103.98 994.82 104.267 997.695 104.842V137.619C994.245 136.469 990.028 135.894 985.044 135.894C978.335 135.894 972.01 137.715 966.068 141.357C960.318 144.807 955.622 150.366 951.98 158.033C948.338 165.508 946.517 174.996 946.517 186.497V210.648C946.517 216.782 946.613 221.67 946.804 225.311C947.188 228.762 947.859 231.828 948.817 234.512C949.967 237.195 951.596 239.879 953.705 242.562V244H907.99V242.562C909.715 240.071 910.961 237.387 911.727 234.512C912.686 231.637 913.261 228.378 913.452 224.736C913.836 221.095 914.028 216.398 914.028 210.648V143.657ZM1057.7 210.648C1057.7 216.59 1057.8 221.382 1057.99 225.024C1058.38 228.666 1058.95 231.924 1059.72 234.799C1060.48 237.483 1061.73 240.071 1063.45 242.562V244H1019.18V242.562C1020.9 240.071 1022.15 237.387 1022.92 234.512C1023.87 231.637 1024.45 228.378 1024.64 224.736C1025.02 221.095 1025.22 216.398 1025.22 210.648V143.657C1025.22 138.482 1024.93 134.073 1024.35 130.431C1023.97 126.789 1023.3 123.531 1022.34 120.656C1021.38 117.78 1019.94 115.097 1018.03 112.605V110.88L1056.84 106.855H1057.7V210.648ZM1041.32 84.7161C1035.57 84.7161 1030.58 82.7035 1026.37 78.6783C1022.34 74.4614 1020.33 69.4778 1020.33 63.7274C1020.33 58.1688 1022.34 53.281 1026.37 49.0641C1030.58 44.8472 1035.57 42.7387 1041.32 42.7387C1046.87 42.7387 1051.67 44.8472 1055.69 49.0641C1059.91 53.281 1062.02 58.1688 1062.02 63.7274C1062.02 69.4778 1059.91 74.4614 1055.69 78.6783C1051.67 82.7035 1046.87 84.7161 1041.32 84.7161ZM1099.33 75.8031C1099.33 70.6278 1099.04 66.2192 1098.46 62.5774C1098.08 58.9355 1097.41 55.677 1096.45 52.8018C1095.49 49.9267 1094.06 47.2432 1092.14 44.7514V43.0263L1130.95 39.001H1131.82V210.648C1131.82 216.59 1131.91 221.382 1132.1 225.024C1132.49 228.666 1133.06 231.924 1133.83 234.799C1134.6 237.483 1135.84 240.071 1137.57 242.562V244H1093.29V242.562C1095.01 240.071 1096.26 237.387 1097.03 234.512C1097.99 231.637 1098.56 228.378 1098.75 224.736C1099.14 221.095 1099.33 216.398 1099.33 210.648V75.8031ZM1173.45 75.8031C1173.45 70.6278 1173.16 66.2192 1172.59 62.5774C1172.21 58.9355 1171.54 55.677 1170.58 52.8018C1169.62 49.9267 1168.18 47.2432 1166.26 44.7514V43.0263L1205.08 39.001H1205.94V210.648C1205.94 216.59 1206.04 221.382 1206.23 225.024C1206.61 228.666 1207.19 231.924 1207.95 234.799C1208.72 237.483 1209.97 240.071 1211.69 242.562V244H1167.41V242.562C1169.14 240.071 1170.39 237.387 1171.15 234.512C1172.11 231.637 1172.69 228.378 1172.88 224.736C1173.26 221.095 1173.45 216.398 1173.45 210.648V75.8031Z" fill="white"/>
<path d="M184.852 214.649C185.854 227.067 187.187 233.821 190.918 237.55C195.116 241.743 203.133 242.883 218.738 243.94C218.739 243.94 218.739 243.94 218.739 243.939C218.739 243.939 218.74 243.939 218.74 243.939C219.523 243.991 220.258 244.34 220.794 244.913C221.33 245.487 221.629 246.243 221.629 247.028C221.629 247.814 221.33 248.571 220.794 249.145C220.257 249.718 219.523 250.067 218.739 250.119C203.129 251.202 195.121 252.353 190.93 256.554C187.203 260.289 185.889 267.045 184.901 279.465V284.142C184.901 286.049 183.355 287.595 181.449 287.595C179.542 287.595 177.996 286.049 177.996 284.142V279.465C176.995 267.048 175.662 260.293 171.931 256.564C167.983 252.622 160.658 251.379 146.827 250.365L34.7033 250.459C32.8887 250.461 31.4169 248.99 31.4169 247.176C31.4169 245.363 32.8854 243.893 34.6979 243.892L146.83 243.8C160.656 242.764 167.978 241.508 171.919 237.559C175.645 233.823 176.96 227.067 177.947 214.649L177.909 169.087C177.907 167.179 179.454 165.632 181.362 165.632C183.267 165.632 184.813 167.176 184.814 169.082L184.852 214.649ZM110.459 54.7665C112.029 55.6717 112.569 57.678 111.664 59.2483L55.6776 156.45C49.6678 168.959 47.0942 175.933 48.5419 181.321C49.9091 186.415 55.102 190.934 65.3564 197.999L104.823 220.755C106.477 221.709 107.044 223.822 106.091 225.475C105.137 227.129 103.024 227.696 101.371 226.742L61.9149 203.984C50.6617 198.651 44.152 196.408 39.0605 197.79C33.3315 199.331 28.3347 205.708 19.6112 218.705C19.1737 219.356 18.5055 219.816 17.7421 219.993C16.9786 220.17 16.176 220.051 15.497 219.659C14.8178 219.268 14.3116 218.633 14.0819 217.883C13.8524 217.133 13.9164 216.324 14.2597 215.619C21.1235 201.56 24.1339 194.038 22.5917 188.304C21.2244 183.21 16.0318 178.691 5.7753 171.626L1.73051 169.294C0.0768652 168.341 -0.490832 166.228 0.462565 164.574C1.41576 162.921 3.52855 162.353 5.18193 163.306L9.23233 165.641C20.4831 170.974 26.9924 173.216 32.0839 171.834C37.4723 170.383 42.2091 164.657 50.0028 153.18L105.975 55.9722C106.88 54.4006 108.888 53.8606 110.459 54.7665ZM142.117 54.8467C142.795 54.4546 143.596 54.3335 144.359 54.5088C145.123 54.6843 145.791 55.143 146.23 55.792C154.97 68.7689 159.977 75.1366 165.708 76.668C170.802 78.0358 177.309 75.7907 188.553 70.4366L192.589 68.0994C194.242 67.1417 196.36 67.7082 197.314 69.3639C198.266 71.0154 197.701 73.1258 196.051 74.0806L192.003 76.4239C181.76 83.5051 176.577 88.0304 175.217 93.1289C173.776 98.52 176.363 105.489 182.4 117.98L238.558 215.091C239.465 216.659 238.929 218.666 237.361 219.574C235.792 220.482 233.784 219.946 232.876 218.377L176.728 121.272C168.903 109.809 164.163 104.094 158.775 102.654C153.682 101.286 147.174 103.532 135.933 108.886L96.5182 131.696C94.8644 132.653 92.7477 132.087 91.7931 130.431C90.8405 128.78 91.4053 126.669 93.0552 125.714L132.473 102.891C142.718 95.8093 147.901 91.2842 149.262 86.1856C150.792 80.4514 147.773 72.9323 140.884 58.8848C140.541 58.1805 140.477 57.3724 140.706 56.6231C140.935 55.8737 141.439 55.2389 142.117 54.8467Z" fill="white"/>
</svg>
